<svg xmlns="http://www.w3.org/2000/svg" xmlns:xlink="http://www.w3.org/1999/xlink" width="500" zoomAndPan="magnify" viewBox="0 0 375 374.999991" height="500" preserveAspectRatio="xMidYMid meet" version="1.0"><defs><clipPath id="a7caa49be6"><path d="M 2 2 L 373 2 L 373 373 L 2 373 Z M 2 2 " clip-rule="nonzero"/></clipPath><clipPath id="48b7d46f44"><path d="M 187.234375 -10.699219 L 385.949219 188.011719 L 188.007812 385.953125 L -10.707031 187.238281 Z M 187.234375 -10.699219 " clip-rule="nonzero"/></clipPath><clipPath id="7fdf3ba8ee"><path d="M 208.976562 11.042969 L 363.957031 166.019531 C 369.722656 171.789062 372.964844 179.609375 372.964844 187.765625 C 372.964844 195.917969 369.722656 203.742188 363.957031 209.507812 L 209.503906 363.960938 C 203.734375 369.726562 195.914062 372.96875 187.757812 372.96875 C 179.605469 372.96875 171.78125 369.726562 166.015625 363.960938 L 11.039062 208.984375 C 5.269531 203.214844 2.03125 195.394531 2.03125 187.238281 C 2.03125 179.085938 5.269531 171.261719 11.039062 165.496094 L 165.492188 11.042969 C 171.257812 5.277344 179.078125 2.035156 187.234375 2.035156 C 195.390625 2.035156 203.210938 5.277344 208.976562 11.042969 Z M 208.976562 11.042969 " clip-rule="nonzero"/></clipPath><clipPath id="a998436a09"><path d="M 2 2 L 373 2 L 373 373 L 2 373 Z M 2 2 " clip-rule="nonzero"/></clipPath><clipPath id="cd6ad94441"><path d="M 187.234375 -10.699219 L 385.578125 187.644531 L 187.765625 385.457031 L -10.578125 187.113281 Z M 187.234375 -10.699219 " clip-rule="nonzero"/></clipPath><clipPath id="9e6da426d4"><path d="M 187.234375 -10.699219 L 386.101562 188.167969 L 187.234375 387.035156 L -11.632812 188.167969 Z M 187.234375 -10.699219 " clip-rule="nonzero"/></clipPath><clipPath id="480ceabe67"><path d="M 208.976562 11.042969 L 363.949219 166.015625 C 369.71875 171.785156 372.957031 179.605469 372.957031 187.761719 C 372.957031 195.914062 369.71875 203.734375 363.949219 209.503906 L 209.5 363.953125 C 203.734375 369.71875 195.914062 372.957031 187.757812 372.957031 C 179.601562 372.957031 171.78125 369.71875 166.015625 363.953125 L 11.042969 208.976562 C 5.273438 203.210938 2.035156 195.390625 2.035156 187.234375 C 2.035156 179.082031 5.273438 171.257812 11.042969 165.492188 L 165.492188 11.042969 C 171.257812 5.277344 179.078125 2.039062 187.234375 2.039062 C 195.390625 2.039062 203.210938 5.277344 208.976562 11.042969 Z M 208.976562 11.042969 " clip-rule="nonzero"/></clipPath><clipPath id="7f73fbe014"><path d="M 68.25 63.492188 L 291 63.492188 L 291 311.703125 L 68.25 311.703125 Z M 68.25 63.492188 " clip-rule="nonzero"/></clipPath><clipPath id="ec56858144"><path d="M 178.621094 173.753906 L 206.117188 173.753906 L 206.117188 201.246094 L 178.621094 201.246094 Z M 178.621094 173.753906 " clip-rule="nonzero"/></clipPath><clipPath id="0b8e140254"><path d="M 192.371094 173.753906 C 184.777344 173.753906 178.621094 179.90625 178.621094 187.5 C 178.621094 195.09375 184.777344 201.246094 192.371094 201.246094 C 199.960938 201.246094 206.117188 195.09375 206.117188 187.5 C 206.117188 179.90625 199.960938 173.753906 192.371094 173.753906 Z M 192.371094 173.753906 " clip-rule="nonzero"/></clipPath></defs><g clip-path="url(#a7caa49be6)"><g clip-path="url(#48b7d46f44)"><g clip-path="url(#7fdf3ba8ee)"><path fill="#ffd700" d="M 187.234375 -10.699219 L 385.949219 188.011719 L 188.007812 385.953125 L -10.707031 187.238281 Z M 187.234375 -10.699219 " fill-opacity="1" fill-rule="nonzero"/></g></g></g><g clip-path="url(#a998436a09)"><g clip-path="url(#cd6ad94441)"><g clip-path="url(#9e6da426d4)"><g clip-path="url(#480ceabe67)"><path stroke-linecap="butt" transform="matrix(0.53033, 0.53033, -0.53033, 0.53033, 187.233727, -10.699558)" fill="none" stroke-linejoin="miter" d="M 40.998395 -0.000291825 L 333.217656 -0.000291825 C 344.096789 -0.000291825 354.522932 4.319689 362.212719 12.009476 C 369.898823 19.69558 374.218804 30.121722 374.218804 41.000855 L 374.218804 332.233113 C 374.218804 343.104881 369.898823 353.531023 362.209036 361.22081 C 354.519249 368.910597 344.093107 373.230578 333.221339 373.230578 L 40.998395 373.226895 C 30.122945 373.230578 19.696802 368.910597 12.007015 361.22081 C 4.320912 353.534706 -0.00275205 343.104881 0.0009308 332.22943 L 0.0009308 40.997173 C 0.0009308 30.125405 4.320912 19.699262 12.010698 12.009476 C 19.700485 4.319689 30.126628 -0.000291825 40.998395 -0.000291825 Z M 40.998395 -0.000291825 " stroke="#d6b400" stroke-width="14" stroke-opacity="1" stroke-miterlimit="4"/></g></g></g></g><g clip-path="url(#7f73fbe014)"><path fill="#ffffff" d="M 192.40625 116.089844 C 199.699219 116.089844 206.246094 113.160156 211.007812 108.398438 L 211.605469 107.804688 C 216.414062 102.695312 223.558594 101.253906 229.957031 104.132812 C 240.128906 108.695312 249.253906 115.097656 257.042969 122.835938 C 259.871094 125.664062 262.550781 128.738281 264.980469 131.914062 C 263.890625 133.898438 263.246094 136.179688 263.246094 138.609375 C 263.246094 142.429688 264.78125 145.851562 267.261719 148.332031 C 269.742188 150.8125 273.214844 152.351562 276.984375 152.351562 C 280.804688 152.351562 284.230469 150.8125 286.707031 148.332031 C 289.1875 145.851562 290.726562 142.378906 290.726562 138.609375 C 290.726562 134.789062 289.1875 131.367188 286.707031 128.886719 C 284.230469 126.40625 280.757812 124.867188 276.984375 124.867188 C 276.488281 124.867188 275.945312 124.917969 275.449219 124.96875 C 272.519531 121.097656 269.347656 117.425781 265.875 114.003906 C 254.910156 103.042969 241.46875 94.460938 226.4375 89.25 C 221.871094 87.664062 218.546875 84.539062 216.761719 80.023438 C 215.421875 76.699219 213.4375 73.675781 210.910156 71.195312 C 206.246094 66.382812 199.699219 63.453125 192.40625 63.453125 C 185.113281 63.453125 178.566406 66.382812 173.804688 71.144531 C 171.324219 73.625 169.289062 76.652344 167.949219 79.972656 C 166.164062 84.4375 162.839844 87.613281 158.277344 89.203125 C 143.292969 94.410156 129.851562 102.941406 118.839844 113.957031 C 107.875 124.917969 99.292969 138.363281 94.082031 153.394531 C 92.496094 157.957031 89.371094 161.28125 84.855469 163.066406 C 81.535156 164.40625 78.507812 166.390625 76.027344 168.921875 C 71.3125 173.632812 68.386719 180.179688 68.386719 187.472656 C 68.386719 194.765625 71.3125 201.3125 76.078125 206.074219 C 78.558594 208.554688 81.582031 210.589844 84.90625 211.929688 C 89.371094 213.714844 92.546875 217.039062 94.132812 221.601562 C 99.34375 236.585938 107.875 250.027344 118.886719 261.039062 C 129.851562 272.003906 143.292969 280.585938 158.324219 285.792969 C 162.890625 287.382812 166.214844 290.507812 168 295.023438 C 169.339844 298.34375 171.324219 301.371094 173.851562 303.851562 C 178.613281 308.613281 185.210938 311.539062 192.457031 311.539062 C 199.746094 311.539062 206.296875 308.613281 211.058594 303.851562 C 213.539062 301.371094 215.570312 298.34375 216.910156 295.023438 C 218.699219 290.558594 222.019531 287.382812 226.585938 285.792969 C 241.566406 280.585938 255.011719 272.054688 266.023438 261.039062 C 269.445312 257.617188 272.671875 253.945312 275.597656 250.078125 C 276.09375 250.128906 276.636719 250.175781 277.132812 250.175781 C 280.953125 250.175781 284.378906 248.640625 286.859375 246.160156 C 289.339844 243.679688 290.875 240.207031 290.875 236.433594 C 290.875 232.617188 289.339844 229.191406 286.859375 226.710938 C 284.378906 224.230469 280.90625 222.695312 277.132812 222.695312 C 273.316406 222.695312 269.890625 224.230469 267.410156 226.710938 C 264.929688 229.191406 263.394531 232.664062 263.394531 236.433594 C 263.394531 238.867188 264.039062 241.148438 265.128906 243.132812 C 262.699219 246.355469 260.019531 249.382812 257.191406 252.210938 C 249.402344 260 240.277344 266.347656 230.105469 270.914062 C 223.707031 273.789062 216.5625 272.351562 211.753906 267.242188 L 211.15625 266.644531 C 206.394531 261.882812 199.796875 258.957031 192.554688 258.957031 C 185.261719 258.957031 178.714844 261.882812 173.953125 266.644531 L 173.355469 267.292969 C 168.542969 272.402344 161.402344 273.839844 155 270.960938 C 144.832031 266.398438 135.703125 260 127.917969 252.261719 C 120.128906 244.472656 113.777344 235.34375 109.214844 225.175781 C 106.335938 218.773438 107.777344 211.632812 112.886719 206.820312 L 113.480469 206.226562 C 114.074219 205.628906 114.671875 204.984375 115.167969 204.339844 C 120.722656 197.59375 128.3125 194.019531 137.042969 194.019531 C 142.699219 194.019531 148.355469 194.019531 153.960938 194.019531 C 162.292969 194.019531 169.4375 197.195312 175.042969 203.398438 C 179.359375 208.160156 185.609375 211.183594 192.503906 211.183594 C 205.5 211.183594 216.066406 200.667969 216.066406 187.621094 C 216.066406 174.574219 205.550781 164.058594 192.503906 164.058594 C 185.558594 164.058594 179.308594 167.035156 175.042969 171.847656 C 169.488281 178.046875 162.292969 181.222656 153.960938 181.222656 C 148.304688 181.222656 142.648438 181.222656 137.042969 181.222656 C 128.261719 181.222656 120.722656 177.652344 115.167969 170.90625 C 114.621094 170.257812 114.074219 169.613281 113.480469 169.019531 L 112.886719 168.425781 C 107.777344 163.613281 106.335938 156.46875 109.214844 150.070312 C 113.777344 139.898438 120.175781 130.773438 127.917969 122.984375 C 135.703125 115.195312 144.832031 108.84375 155 104.28125 C 161.402344 101.40625 168.542969 102.84375 173.355469 107.953125 L 173.953125 108.546875 C 178.566406 113.160156 185.113281 116.089844 192.40625 116.089844 Z M 144.632812 226.960938 C 143.441406 225.523438 142.945312 223.785156 143.292969 221.902344 C 143.640625 220.015625 144.683594 218.578125 146.320312 217.632812 L 146.417969 217.585938 C 149.046875 216.046875 152.371094 216.640625 154.308594 219.023438 C 155.300781 220.214844 156.339844 221.355469 157.433594 222.496094 C 166.363281 231.425781 178.761719 236.980469 192.40625 236.980469 C 206.046875 236.980469 218.398438 231.425781 227.378906 222.496094 L 228.320312 221.503906 C 227.429688 219.667969 226.882812 217.585938 226.882812 215.402344 C 226.882812 211.582031 228.421875 208.160156 230.902344 205.679688 C 233.382812 203.199219 236.855469 201.660156 240.625 201.660156 C 244.445312 201.660156 247.867188 203.199219 250.347656 205.679688 C 252.828125 208.160156 254.363281 211.632812 254.363281 215.402344 C 254.363281 219.222656 252.828125 222.644531 250.347656 225.125 C 247.867188 227.605469 244.394531 229.144531 240.625 229.144531 C 239.878906 229.144531 239.183594 229.09375 238.441406 228.996094 C 237.695312 229.789062 236.953125 230.582031 236.160156 231.375 C 225.046875 242.539062 209.519531 249.480469 192.40625 249.480469 C 175.292969 249.480469 159.765625 242.539062 148.550781 231.324219 C 147.164062 229.9375 145.875 228.5 144.632812 226.960938 Z M 154.308594 155.972656 C 152.371094 158.304688 149.046875 158.898438 146.417969 157.410156 L 146.320312 157.363281 C 144.683594 156.417969 143.640625 154.929688 143.292969 153.09375 C 142.945312 151.210938 143.394531 149.472656 144.632812 148.035156 C 145.875 146.546875 147.214844 145.058594 148.601562 143.71875 C 159.765625 132.410156 175.292969 125.464844 192.40625 125.464844 C 209.519531 125.464844 225.046875 132.410156 236.257812 143.621094 C 237.050781 144.414062 237.796875 145.207031 238.539062 146 C 239.234375 145.902344 239.980469 145.851562 240.722656 145.851562 C 244.542969 145.851562 247.964844 147.390625 250.445312 149.871094 C 252.925781 152.351562 254.464844 155.824219 254.464844 159.59375 C 254.464844 163.414062 252.925781 166.835938 250.445312 169.316406 C 247.964844 171.796875 244.492188 173.335938 240.722656 173.335938 C 236.902344 173.335938 233.480469 171.796875 231 169.316406 C 228.519531 166.835938 226.980469 163.363281 226.980469 159.59375 C 226.980469 157.410156 227.476562 155.328125 228.421875 153.492188 L 227.476562 152.5 C 218.546875 143.570312 206.148438 138.015625 192.503906 138.015625 C 178.863281 138.015625 166.511719 143.570312 157.53125 152.5 C 156.339844 153.589844 155.300781 154.78125 154.308594 155.972656 Z M 178.664062 285.148438 C 178.664062 281.332031 180.203125 277.90625 182.683594 275.425781 C 185.164062 272.945312 188.636719 271.410156 192.40625 271.410156 C 196.226562 271.410156 199.648438 272.945312 202.128906 275.425781 C 204.609375 277.90625 206.148438 281.378906 206.148438 285.148438 C 206.148438 288.96875 204.609375 292.390625 202.128906 294.871094 C 199.648438 297.351562 196.175781 298.890625 192.40625 298.890625 C 188.585938 298.890625 185.164062 297.351562 182.683594 294.871094 C 180.203125 292.390625 178.664062 288.96875 178.664062 285.148438 Z M 202.128906 80.023438 C 204.609375 82.503906 206.148438 85.976562 206.148438 89.746094 C 206.148438 93.566406 204.609375 96.988281 202.128906 99.46875 C 199.648438 101.949219 196.175781 103.488281 192.40625 103.488281 C 188.585938 103.488281 185.164062 101.949219 182.683594 99.46875 C 180.203125 96.988281 178.664062 93.515625 178.664062 89.746094 C 178.664062 85.925781 180.203125 82.503906 182.683594 80.023438 C 185.164062 77.542969 188.636719 76.003906 192.40625 76.003906 C 196.226562 76.003906 199.648438 77.542969 202.128906 80.023438 Z M 84.957031 177.75 C 87.4375 175.269531 90.910156 173.730469 94.679688 173.730469 C 98.5 173.730469 101.921875 175.269531 104.402344 177.75 C 106.882812 180.230469 108.421875 183.703125 108.421875 187.472656 C 108.421875 191.292969 106.882812 194.714844 104.402344 197.195312 C 101.921875 199.675781 98.449219 201.214844 94.679688 201.214844 C 90.859375 201.214844 87.4375 199.675781 84.957031 197.195312 C 82.476562 194.714844 80.9375 191.242188 80.9375 187.472656 C 80.9375 183.652344 82.476562 180.230469 84.957031 177.75 Z M 84.957031 177.75 " fill-opacity="1" fill-rule="evenodd"/></g><g clip-path="url(#ec56858144)"><g clip-path="url(#0b8e140254)"><path fill="#ffd700" d="M 178.621094 173.753906 L 206.117188 173.753906 L 206.117188 201.246094 L 178.621094 201.246094 Z M 178.621094 173.753906 " fill-opacity="1" fill-rule="nonzero"/></g></g></svg>