<svg xmlns="http://www.w3.org/2000/svg" xmlns:xlink="http://www.w3.org/1999/xlink" width="500" zoomAndPan="magnify" viewBox="0 0 375 374.999991" height="500" preserveAspectRatio="xMidYMid meet" version="1.0"><defs><clipPath id="c696a2c5ff"><path d="M 2 2 L 373 2 L 373 373 L 2 373 Z M 2 2 " clip-rule="nonzero"/></clipPath><clipPath id="aabb5acdc5"><path d="M 187.234375 -10.699219 L 385.949219 188.011719 L 188.007812 385.953125 L -10.707031 187.238281 Z M 187.234375 -10.699219 " clip-rule="nonzero"/></clipPath><clipPath id="6e67f15413"><path d="M 208.976562 11.042969 L 363.957031 166.019531 C 369.722656 171.789062 372.964844 179.609375 372.964844 187.765625 C 372.964844 195.917969 369.722656 203.742188 363.957031 209.507812 L 209.503906 363.960938 C 203.734375 369.726562 195.914062 372.96875 187.757812 372.96875 C 179.605469 372.96875 171.78125 369.726562 166.015625 363.960938 L 11.039062 208.984375 C 5.269531 203.214844 2.03125 195.394531 2.03125 187.238281 C 2.03125 179.085938 5.269531 171.261719 11.039062 165.496094 L 165.492188 11.042969 C 171.257812 5.277344 179.078125 2.035156 187.234375 2.035156 C 195.390625 2.035156 203.210938 5.277344 208.976562 11.042969 Z M 208.976562 11.042969 " clip-rule="nonzero"/></clipPath><clipPath id="a9f8c31053"><path d="M 2 2 L 373 2 L 373 373 L 2 373 Z M 2 2 " clip-rule="nonzero"/></clipPath><clipPath id="2fba34d508"><path d="M 187.234375 -10.699219 L 385.578125 187.644531 L 187.765625 385.457031 L -10.578125 187.113281 Z M 187.234375 -10.699219 " clip-rule="nonzero"/></clipPath><clipPath id="e04f5a3e18"><path d="M 187.234375 -10.699219 L 386.101562 188.167969 L 187.234375 387.035156 L -11.632812 188.167969 Z M 187.234375 -10.699219 " clip-rule="nonzero"/></clipPath><clipPath id="d38dd9b114"><path d="M 208.976562 11.042969 L 363.949219 166.015625 C 369.71875 171.785156 372.957031 179.605469 372.957031 187.761719 C 372.957031 195.914062 369.71875 203.734375 363.949219 209.503906 L 209.5 363.953125 C 203.734375 369.71875 195.914062 372.957031 187.757812 372.957031 C 179.601562 372.957031 171.78125 369.71875 166.015625 363.953125 L 11.042969 208.976562 C 5.273438 203.210938 2.035156 195.390625 2.035156 187.234375 C 2.035156 179.082031 5.273438 171.257812 11.042969 165.492188 L 165.492188 11.042969 C 171.257812 5.277344 179.078125 2.039062 187.234375 2.039062 C 195.390625 2.039062 203.210938 5.277344 208.976562 11.042969 Z M 208.976562 11.042969 " clip-rule="nonzero"/></clipPath><clipPath id="015b7d1f55"><path d="M 68.25 63.492188 L 291 63.492188 L 291 311.703125 L 68.25 311.703125 Z M 68.25 63.492188 " clip-rule="nonzero"/></clipPath><clipPath id="a21532aee0"><path d="M 178.621094 173.753906 L 206.117188 173.753906 L 206.117188 201.246094 L 178.621094 201.246094 Z M 178.621094 173.753906 " clip-rule="nonzero"/></clipPath><clipPath id="dd51e05f5f"><path d="M 192.371094 173.753906 C 184.777344 173.753906 178.621094 179.90625 178.621094 187.5 C 178.621094 195.09375 184.777344 201.246094 192.371094 201.246094 C 199.960938 201.246094 206.117188 195.09375 206.117188 187.5 C 206.117188 179.90625 199.960938 173.753906 192.371094 173.753906 Z M 192.371094 173.753906 " clip-rule="nonzero"/></clipPath></defs><g clip-path="url(#c696a2c5ff)"><g clip-path="url(#aabb5acdc5)"><g clip-path="url(#6e67f15413)"><path fill="#ffd700" d="M 187.234375 -10.699219 L 385.949219 188.011719 L 188.007812 385.953125 L -10.707031 187.238281 Z M 187.234375 -10.699219 " fill-opacity="1" fill-rule="nonzero"/></g></g></g><g clip-path="url(#a9f8c31053)"><g clip-path="url(#2fba34d508)"><g clip-path="url(#e04f5a3e18)"><g clip-path="url(#d38dd9b114)"><path stroke-linecap="butt" transform="matrix(0.53033, 0.53033, -0.53033, 0.53033, 187.233727, -10.699558)" fill="none" stroke-linejoin="miter" d="M 40.998395 -0.000291825 L 333.217656 -0.000291825 C 344.096789 -0.000291825 354.522932 4.319689 362.212719 12.009476 C 369.898823 19.69558 374.218804 30.121722 374.218804 41.000855 L 374.218804 332.233113 C 374.218804 343.104881 369.898823 353.531023 362.209036 361.22081 C 354.519249 368.910597 344.093107 373.230578 333.221339 373.230578 L 40.998395 373.226895 C 30.122945 373.230578 19.696802 368.910597 12.007015 361.22081 C 4.320912 353.534706 -0.00275205 343.104881 0.0009308 332.22943 L 0.0009308 40.997173 C 0.0009308 30.125405 4.320912 19.699262 12.010698 12.009476 C 19.700485 4.319689 30.126628 -0.000291825 40.998395 -0.000291825 Z M 40.998395 -0.000291825 " stroke="#d6b400" stroke-width="14" stroke-opacity="1" stroke-miterlimit="4"/></g></g></g></g><g clip-path="url(#015b7d1f55)"><path fill="#000000" d="M 192.398438 116.125 C 199.691406 116.125 206.238281 113.195312 211 108.429688 L 211.597656 107.832031 C 216.40625 102.71875 223.550781 101.28125 229.949219 104.160156 C 240.117188 108.726562 249.246094 115.128906 257.035156 122.875 C 259.863281 125.703125 262.539062 128.78125 264.96875 131.957031 C 263.878906 133.945312 263.234375 136.226562 263.234375 138.660156 C 263.234375 142.480469 264.773438 145.90625 267.253906 148.390625 C 269.734375 150.871094 273.203125 152.410156 276.976562 152.410156 C 280.792969 152.410156 284.21875 150.871094 286.699219 148.390625 C 289.175781 145.90625 290.714844 142.433594 290.714844 138.660156 C 290.714844 134.835938 289.175781 131.414062 286.699219 128.929688 C 284.21875 126.449219 280.746094 124.910156 276.976562 124.910156 C 276.480469 124.910156 275.933594 124.960938 275.4375 125.007812 C 272.511719 121.136719 269.335938 117.464844 265.863281 114.039062 C 254.902344 103.066406 241.457031 94.480469 226.429688 89.269531 C 221.863281 87.679688 218.539062 84.550781 216.753906 80.035156 C 215.414062 76.707031 213.429688 73.679688 210.902344 71.199219 C 206.238281 66.382812 199.691406 63.453125 192.398438 63.453125 C 185.105469 63.453125 178.558594 66.382812 173.796875 71.148438 C 171.316406 73.632812 169.285156 76.660156 167.945312 79.984375 C 166.15625 84.453125 162.835938 87.628906 158.269531 89.21875 C 143.289062 94.429688 129.847656 102.96875 118.835938 113.988281 C 107.871094 124.960938 99.292969 138.410156 94.082031 153.453125 C 92.496094 158.019531 89.371094 161.34375 84.855469 163.132812 C 81.53125 164.472656 78.507812 166.457031 76.027344 168.988281 C 71.3125 173.707031 68.386719 180.257812 68.386719 187.554688 C 68.386719 194.851562 71.3125 201.40625 76.074219 206.171875 C 78.554688 208.652344 81.582031 210.6875 84.90625 212.027344 C 89.371094 213.816406 92.542969 217.140625 94.132812 221.707031 C 99.339844 236.699219 107.871094 250.152344 118.886719 261.171875 C 129.847656 272.140625 143.289062 280.730469 158.320312 285.941406 C 162.882812 287.53125 166.207031 290.65625 167.992188 295.175781 C 169.332031 298.5 171.316406 301.527344 173.847656 304.011719 C 178.609375 308.777344 185.207031 311.703125 192.449219 311.703125 C 199.742188 311.703125 206.289062 308.777344 211.050781 304.011719 C 213.53125 301.527344 215.5625 298.5 216.902344 295.175781 C 218.691406 290.707031 222.011719 287.53125 226.578125 285.941406 C 241.558594 280.730469 255 272.191406 266.011719 261.171875 C 269.433594 257.746094 272.660156 254.074219 275.585938 250.199219 C 276.082031 250.25 276.628906 250.300781 277.125 250.300781 C 280.941406 250.300781 284.367188 248.761719 286.847656 246.28125 C 289.328125 243.796875 290.863281 240.324219 290.863281 236.550781 C 290.863281 232.726562 289.328125 229.300781 286.847656 226.820312 C 284.367188 224.339844 280.894531 222.800781 277.125 222.800781 C 273.304688 222.800781 269.882812 224.339844 267.402344 226.820312 C 264.921875 229.300781 263.382812 232.777344 263.382812 236.550781 C 263.382812 238.980469 264.027344 241.265625 265.121094 243.25 C 262.6875 246.476562 260.011719 249.507812 257.183594 252.335938 C 249.394531 260.128906 240.265625 266.484375 230.097656 271.050781 C 223.699219 273.929688 216.554688 272.488281 211.746094 267.375 L 211.148438 266.78125 C 206.386719 262.015625 199.789062 259.085938 192.546875 259.085938 C 185.257812 259.085938 178.707031 262.015625 173.945312 266.78125 L 173.351562 267.425781 C 168.539062 272.539062 161.394531 273.980469 154.996094 271.097656 C 144.828125 266.53125 135.699219 260.128906 127.914062 252.386719 C 120.125 244.589844 113.777344 235.457031 109.210938 225.28125 C 106.335938 218.878906 107.773438 211.730469 112.882812 206.914062 L 113.476562 206.320312 C 114.074219 205.722656 114.667969 205.078125 115.164062 204.433594 C 120.71875 197.683594 128.308594 194.109375 137.039062 194.109375 C 142.695312 194.109375 148.351562 194.109375 153.957031 194.109375 C 162.289062 194.109375 169.433594 197.285156 175.039062 203.488281 C 179.351562 208.253906 185.601562 211.28125 192.5 211.28125 C 205.496094 211.28125 216.058594 200.757812 216.058594 187.703125 C 216.058594 174.648438 205.542969 164.125 192.5 164.125 C 185.554688 164.125 179.304688 167.101562 175.039062 171.917969 C 169.480469 178.125 162.289062 181.300781 153.957031 181.300781 C 148.300781 181.300781 142.644531 181.300781 137.039062 181.300781 C 128.261719 181.300781 120.71875 177.726562 115.164062 170.976562 C 114.617188 170.328125 114.074219 169.683594 113.476562 169.089844 L 112.882812 168.492188 C 107.773438 163.679688 106.335938 156.53125 109.210938 150.125 C 113.777344 139.949219 120.175781 130.816406 127.914062 123.023438 C 135.699219 115.230469 144.828125 108.875 154.996094 104.308594 C 161.394531 101.429688 168.539062 102.871094 173.351562 107.980469 L 173.945312 108.578125 C 178.558594 113.195312 185.105469 116.125 192.398438 116.125 Z M 144.628906 227.070312 C 143.4375 225.628906 142.941406 223.890625 143.289062 222.003906 C 143.636719 220.117188 144.679688 218.679688 146.316406 217.738281 L 146.414062 217.6875 C 149.042969 216.148438 152.367188 216.742188 154.300781 219.125 C 155.292969 220.316406 156.335938 221.460938 157.425781 222.601562 C 166.355469 231.535156 178.757812 237.097656 192.398438 237.097656 C 206.039062 237.097656 218.390625 231.535156 227.371094 222.601562 L 228.3125 221.609375 C 227.417969 219.773438 226.875 217.6875 226.875 215.503906 C 226.875 211.679688 228.410156 208.253906 230.890625 205.773438 C 233.371094 203.292969 236.84375 201.753906 240.613281 201.753906 C 244.433594 201.753906 247.855469 203.292969 250.335938 205.773438 C 252.816406 208.253906 254.355469 211.730469 254.355469 215.503906 C 254.355469 219.324219 252.816406 222.75 250.335938 225.230469 C 247.855469 227.714844 244.382812 229.253906 240.613281 229.253906 C 239.871094 229.253906 239.175781 229.203125 238.433594 229.105469 C 237.6875 229.898438 236.945312 230.691406 236.148438 231.488281 C 225.039062 242.65625 209.511719 249.605469 192.398438 249.605469 C 175.285156 249.605469 159.757812 242.65625 148.546875 231.4375 C 147.160156 230.046875 145.871094 228.609375 144.628906 227.070312 Z M 154.300781 156.035156 C 152.367188 158.367188 149.042969 158.960938 146.414062 157.472656 L 146.316406 157.421875 C 144.679688 156.480469 143.636719 154.992188 143.289062 153.15625 C 142.941406 151.269531 143.390625 149.53125 144.628906 148.089844 C 145.871094 146.601562 147.210938 145.113281 148.597656 143.773438 C 159.757812 132.453125 175.285156 125.503906 192.398438 125.503906 C 209.511719 125.503906 225.039062 132.453125 236.25 143.671875 C 237.042969 144.46875 237.789062 145.261719 238.53125 146.054688 C 239.226562 145.957031 239.96875 145.90625 240.714844 145.90625 C 244.535156 145.90625 247.957031 147.445312 250.4375 149.929688 C 252.917969 152.410156 254.453125 155.886719 254.453125 159.65625 C 254.453125 163.480469 252.917969 166.90625 250.4375 169.386719 C 247.957031 171.867188 244.484375 173.40625 240.714844 173.40625 C 236.894531 173.40625 233.472656 171.867188 230.992188 169.386719 C 228.511719 166.90625 226.972656 163.429688 226.972656 159.65625 C 226.972656 157.472656 227.46875 155.386719 228.410156 153.550781 L 227.46875 152.558594 C 218.539062 143.625 206.140625 138.0625 192.5 138.0625 C 178.855469 138.0625 166.503906 143.625 157.527344 152.558594 C 156.335938 153.652344 155.292969 154.84375 154.300781 156.035156 Z M 178.660156 285.296875 C 178.660156 281.472656 180.195312 278.050781 182.675781 275.566406 C 185.15625 273.085938 188.628906 271.546875 192.398438 271.546875 C 196.21875 271.546875 199.640625 273.085938 202.121094 275.566406 C 204.601562 278.050781 206.140625 281.523438 206.140625 285.296875 C 206.140625 289.117188 204.601562 292.542969 202.121094 295.027344 C 199.640625 297.507812 196.167969 299.046875 192.398438 299.046875 C 188.578125 299.046875 185.15625 297.507812 182.675781 295.027344 C 180.195312 292.542969 178.660156 289.117188 178.660156 285.296875 Z M 202.121094 80.035156 C 204.601562 82.515625 206.140625 85.992188 206.140625 89.765625 C 206.140625 93.585938 204.601562 97.011719 202.121094 99.492188 C 199.640625 101.976562 196.167969 103.515625 192.398438 103.515625 C 188.578125 103.515625 185.15625 101.976562 182.675781 99.492188 C 180.195312 97.011719 178.660156 93.535156 178.660156 89.765625 C 178.660156 85.941406 180.195312 82.515625 182.675781 80.035156 C 185.15625 77.554688 188.628906 76.015625 192.398438 76.015625 C 196.21875 76.015625 199.640625 77.554688 202.121094 80.035156 Z M 84.957031 177.824219 C 87.4375 175.34375 90.90625 173.804688 94.679688 173.804688 C 98.496094 173.804688 101.921875 175.34375 104.398438 177.824219 C 106.878906 180.308594 108.417969 183.78125 108.417969 187.554688 C 108.417969 191.378906 106.878906 194.800781 104.398438 197.285156 C 101.921875 199.765625 98.449219 201.304688 94.679688 201.304688 C 90.859375 201.304688 87.4375 199.765625 84.957031 197.285156 C 82.476562 194.800781 80.9375 191.328125 80.9375 187.554688 C 80.9375 183.734375 82.476562 180.308594 84.957031 177.824219 Z M 84.957031 177.824219 " fill-opacity="1" fill-rule="evenodd"/></g><g clip-path="url(#a21532aee0)"><g clip-path="url(#dd51e05f5f)"><path fill="#ffd700" d="M 178.621094 173.753906 L 206.117188 173.753906 L 206.117188 201.246094 L 178.621094 201.246094 Z M 178.621094 173.753906 " fill-opacity="1" fill-rule="nonzero"/></g></g></svg>