<svg id="qm" data-name="qm1" xmlns="http://www.w3.org/2000/svg" width="109.96" height="89.79" viewBox="0 0 109.96 89.79"><defs><style>.cls-1{fill:#000000;}</style></defs><title>QuoteMarks</title><path class="cls-1" d="M51.91,27.06c0,23.62-12.79,45.51-30.26,62.73L0,77.74C6.64,66.91,10.82,58.55,12.05,45.26,4.18,40.1-.74,34.44-0.74,22.88-0.74,10.82,9.84,0,25.09,0,41.08,0,51.91,11.56,51.91,27.06Z" transform="translate(0.74)"/><path class="cls-1" d="M109.22,27.06c0,23.62-12.79,45.51-30.26,62.73L57.31,77.74C64,66.91,68.14,58.55,69.37,45.26,61.5,40.1,56.58,34.44,56.58,22.88,56.58,10.82,67.16,0,82.41,0,98.4,0,109.22,11.56,109.22,27.06Z" transform="translate(0.74)"/></svg>